# xmcd
#
# Track frame offsets:
#	150
#	7302
#	27501
#	49579
#	65433
#	88153
#	111115
#	132140
#
# Disc length: 2084 seconds
#
# Revision: 0
# Processed by: cddbd v1.5.2PL0 Copyright (c) Steve Scherf et al.
# Submitted via: audiograbber 1.83.01
#
DISCID=6a082208
DTITLE=Damarill - I Of The Storm
DYEAR=2009
DGENRE=Heavy Metal
TTITLE0=Calm
TTITLE1=Dirty Grub
TTITLE2=Alice In Murderland
TTITLE3=Snakes
TTITLE4=Midnight Courtesan
TTITLE5=Singularis
TTITLE6=Samsara
TTITLE7=Circle Of Wolves
EXTD=
EXTT0=
EXTT1=
EXTT2=
EXTT3=
EXTT4=
EXTT5=
EXTT6=
EXTT7=
PLAYORDER=
